<svg width="1841" height="1662" viewBox="0 0 1841 1662" fill="none" xmlns="http://www.w3.org/2000/svg">
<rect x="103.875" width="1662" height="1662" rx="831" fill="white"/>
<path d="M381.841 790.439C381.841 731.228 394.651 678.565 420.271 632.449C445.891 585.764 481.474 549.611 527.021 523.991C573.137 497.802 625.231 484.707 683.303 484.707C754.469 484.707 815.388 503.495 866.059 541.071C916.729 578.647 950.605 629.887 967.685 694.791H807.133C795.177 669.74 778.097 650.668 755.893 637.573C734.258 624.478 709.492 617.931 681.595 617.931C636.617 617.931 600.18 633.588 572.283 664.901C544.385 696.214 530.437 738.06 530.437 790.439C530.437 842.818 544.385 884.664 572.283 915.977C600.18 947.29 636.617 962.947 681.595 962.947C709.492 962.947 734.258 956.4 755.893 943.305C778.097 930.21 795.177 911.138 807.133 886.087H967.685C950.605 950.991 916.729 1002.23 866.059 1039.81C815.388 1076.81 754.469 1095.32 683.303 1095.32C625.231 1095.32 573.137 1082.51 527.021 1056.89C481.474 1030.7 445.891 994.545 420.271 948.429C394.651 902.313 381.841 849.65 381.841 790.439Z" fill="#313A42"/>
<path d="M1231.33 1097.02C1187.49 1097.02 1148.21 1089.91 1113.48 1075.67C1078.75 1061.44 1050.85 1040.38 1029.79 1012.48C1009.29 984.582 998.473 950.991 997.334 911.707H1152.76C1155.04 933.911 1162.73 950.991 1175.82 962.947C1188.91 974.334 1205.99 980.027 1227.06 980.027C1248.69 980.027 1265.77 975.188 1278.3 965.509C1290.83 955.261 1297.09 941.312 1297.09 923.663C1297.09 908.86 1291.96 896.62 1281.72 886.941C1272.04 877.262 1259.8 869.292 1244.99 863.029C1230.76 856.766 1210.26 849.65 1183.51 841.679C1144.79 829.723 1113.19 817.767 1088.71 805.811C1064.23 793.855 1043.17 776.206 1025.52 752.863C1007.87 729.52 999.042 699.061 999.042 661.485C999.042 605.69 1019.25 562.136 1059.68 530.823C1100.1 498.94 1152.76 482.999 1217.67 482.999C1283.71 482.999 1336.94 498.94 1377.36 530.823C1417.79 562.136 1439.42 605.975 1442.27 662.339H1284.28C1283.14 642.982 1276.02 627.894 1262.93 617.077C1249.83 605.69 1233.04 599.997 1212.54 599.997C1194.89 599.997 1180.66 604.836 1169.84 614.515C1159.02 623.624 1153.62 637.003 1153.62 654.653C1153.62 674.01 1162.73 689.098 1180.94 699.915C1199.16 710.732 1227.63 722.404 1266.34 734.929C1305.06 748.024 1336.37 760.549 1360.28 772.505C1384.77 784.461 1405.83 801.826 1423.48 824.599C1441.13 847.372 1449.95 876.693 1449.95 912.561C1449.95 946.721 1441.13 977.75 1423.48 1005.65C1406.4 1033.54 1381.35 1055.75 1348.33 1072.26C1315.31 1088.77 1276.31 1097.02 1231.33 1097.02Z" fill="#AEDA2A"/>
</svg>
